<svg width="480" height="251" viewBox="0 0 480 251" fill="none" xmlns="http://www.w3.org/2000/svg">
<g style="mix-blend-mode:overlay">
<path fill-rule="evenodd" clip-rule="evenodd" d="M-96 98.8286L-96 -219.057H-97L-97 98.8286H-317V99.8286H-97V368.829H-317V369.829H-97L-97 957.943H-96L-96 369.829H593V957.943H594V369.829H863V957.943H864V369.829H1084V368.829H864V99.8286H1084V98.8286H864V-219.057H863V98.8286H594V-219.057H593V98.8286H-96ZM863 99.8286H594V368.829H863V99.8286ZM593 99.8286V368.829H-96V99.8286H593Z" fill="#106BD7"/>
</g>
<g style="mix-blend-mode:soft-light">
<path d="M120 -0.0571289V399.943" stroke="#106BD7" stroke-dasharray="5 5"/>
</g>
<g style="mix-blend-mode:soft-light">
<path d="M211 -0.0571289V399.943" stroke="#106BD7" stroke-dasharray="5 5"/>
</g>
<g style="mix-blend-mode:soft-light">
<path d="M222 -0.0571289V399.943" stroke="#106BD7" stroke-dasharray="5 5"/>
</g>
<g style="mix-blend-mode:soft-light">
<path d="M353 -0.0571289V399.943" stroke="#106BD7" stroke-dasharray="5 5"/>
</g>
<g style="mix-blend-mode:soft-light">
<path d="M368 -0.0571289V399.943" stroke="#106BD7" stroke-dasharray="5 5"/>
</g>
</svg>
