<svg width="1400" height="400" viewBox="0 0 1400 400" fill="none" xmlns="http://www.w3.org/2000/svg">
<g style="mix-blend-mode:overlay">
<path fill-rule="evenodd" clip-rule="evenodd" d="M225 99.0005L225 -219H224L224 99.0005H-268V100H224V369H-268V370H224L224 958H225L225 370H914V958H915V370H1184V958H1185V370H1677V369H1185V100H1677V99.0005H1185V-219H1184V99.0005H915V-219H914V99.0005H225ZM1184 100H915V369H1184V100ZM914 100V369H225V100H914Z" fill="#106BD7"/>
</g>
<g style="mix-blend-mode:soft-light">
<path d="M441 -0.000488281V400" stroke="#106BD7" stroke-dasharray="5 5"/>
</g>
<g style="mix-blend-mode:soft-light">
<path d="M532 -0.000488281V400" stroke="#106BD7" stroke-dasharray="5 5"/>
</g>
<g style="mix-blend-mode:soft-light">
<path d="M543 -0.000488281V400" stroke="#106BD7" stroke-dasharray="5 5"/>
</g>
<g style="mix-blend-mode:soft-light">
<path d="M674 -0.000488281V400" stroke="#106BD7" stroke-dasharray="5 5"/>
</g>
<g style="mix-blend-mode:soft-light">
<path d="M689 -0.000488281V400" stroke="#106BD7" stroke-dasharray="5 5"/>
</g>
<g style="mix-blend-mode:soft-light">
<path d="M819 -0.000488281L819 400" stroke="#106BD7" stroke-dasharray="5 5"/>
</g>
<g style="mix-blend-mode:soft-light">
<path d="M834 -0.000488281L834 400" stroke="#106BD7" stroke-dasharray="5 5"/>
</g>
<g style="mix-blend-mode:soft-light">
<path d="M966 -0.000488281L966 400" stroke="#106BD7" stroke-dasharray="5 5"/>
</g>
</svg>
