<svg width="1920" height="400" viewBox="0 0 1920 400" fill="none" xmlns="http://www.w3.org/2000/svg">
<g style="mix-blend-mode:overlay">
<path fill-rule="evenodd" clip-rule="evenodd" d="M485 99.0005L485 -219H484L484 99.0005H-8V100H484V369H-8V370H484L484 958H485L485 370H1174V958H1175V370H1444V958H1445V370H1937V369H1445V100H1937V99.0005H1445V-219H1444V99.0005H1175V-219H1174V99.0005H485ZM1444 100H1175V369H1444V100ZM1174 100V369H485V100H1174Z" fill="#106BD7"/>
</g>
<g style="mix-blend-mode:soft-light">
<path d="M701 -0.000488281V400" stroke="#106BD7" stroke-dasharray="5 5"/>
</g>
<g style="mix-blend-mode:soft-light">
<path d="M792 -0.000488281V400" stroke="#106BD7" stroke-dasharray="5 5"/>
</g>
<g style="mix-blend-mode:soft-light">
<path d="M803 -0.000488281V400" stroke="#106BD7" stroke-dasharray="5 5"/>
</g>
<g style="mix-blend-mode:soft-light">
<path d="M934 -0.000488281V400" stroke="#106BD7" stroke-dasharray="5 5"/>
</g>
<g style="mix-blend-mode:soft-light">
<path d="M949 -0.000488281V400" stroke="#106BD7" stroke-dasharray="5 5"/>
</g>
<g style="mix-blend-mode:soft-light">
<path d="M1079 -0.000488281L1079 400" stroke="#106BD7" stroke-dasharray="5 5"/>
</g>
<g style="mix-blend-mode:soft-light">
<path d="M1094 -0.000488281L1094 400" stroke="#106BD7" stroke-dasharray="5 5"/>
</g>
<g style="mix-blend-mode:soft-light">
<path d="M1226 -0.000488281L1226 400" stroke="#106BD7" stroke-dasharray="5 5"/>
</g>
</svg>
