<svg width="320" height="251" viewBox="0 0 320 251" fill="none" xmlns="http://www.w3.org/2000/svg">
<g style="mix-blend-mode:overlay">
<path fill-rule="evenodd" clip-rule="evenodd" d="M-176 98.8286L-176 -219.057H-177L-177 98.8286H-397V99.8286H-177V368.829H-397V369.829H-177L-177 957.943H-176L-176 369.829H513V957.943H514V369.829H783V957.943H784V369.829H1004V368.829H784V99.8286H1004V98.8286H784V-219.057H783V98.8286H514V-219.057H513V98.8286H-176ZM783 99.8286H514V368.829H783V99.8286ZM513 99.8286V368.829H-176V99.8286H513Z" fill="#106BD7"/>
</g>
<g style="mix-blend-mode:soft-light">
<path d="M40 -0.0571289V399.943" stroke="#106BD7" stroke-dasharray="5 5"/>
</g>
<g style="mix-blend-mode:soft-light">
<path d="M131 -0.0571289V399.943" stroke="#106BD7" stroke-dasharray="5 5"/>
</g>
<g style="mix-blend-mode:soft-light">
<path d="M142 -0.0571289V399.943" stroke="#106BD7" stroke-dasharray="5 5"/>
</g>
<g style="mix-blend-mode:soft-light">
<path d="M273 -0.0571289V399.943" stroke="#106BD7" stroke-dasharray="5 5"/>
</g>
<g style="mix-blend-mode:soft-light">
<path d="M288 -0.0571289V399.943" stroke="#106BD7" stroke-dasharray="5 5"/>
</g>
</svg>
