<svg width="1200" height="400" viewBox="0 0 1200 400" fill="none" xmlns="http://www.w3.org/2000/svg">
<g style="mix-blend-mode:overlay">
<path fill-rule="evenodd" clip-rule="evenodd" d="M119.5 98.8857L119.5 -219H118.5L118.5 98.8857H-101.5V99.8857H118.5V368.886H-101.5V369.886H118.5L118.5 958H119.5L119.5 369.886H808.5V958H809.5V369.886H1078.5V958H1079.5V369.886H1299.5V368.886H1079.5V99.8857H1299.5V98.8857H1079.5V-219H1078.5V98.8857H809.5V-219H808.5V98.8857H119.5ZM1078.5 99.8857H809.5V368.886H1078.5V99.8857ZM808.5 99.8857V368.886H119.5V99.8857H808.5Z" fill="#106BD7"/>
</g>
<g style="mix-blend-mode:soft-light">
<path d="M335.5 0V400" stroke="#106BD7" stroke-dasharray="5 5"/>
</g>
<g style="mix-blend-mode:soft-light">
<path d="M426.5 0V400" stroke="#106BD7" stroke-dasharray="5 5"/>
</g>
<g style="mix-blend-mode:soft-light">
<path d="M437.5 0V400" stroke="#106BD7" stroke-dasharray="5 5"/>
</g>
<g style="mix-blend-mode:soft-light">
<path d="M568.5 0V400" stroke="#106BD7" stroke-dasharray="5 5"/>
</g>
<g style="mix-blend-mode:soft-light">
<path d="M583.5 0V400" stroke="#106BD7" stroke-dasharray="5 5"/>
</g>
<g style="mix-blend-mode:soft-light">
<path d="M713.5 0L713.5 400" stroke="#106BD7" stroke-dasharray="5 5"/>
</g>
<g style="mix-blend-mode:soft-light">
<path d="M728.5 0L728.5 400" stroke="#106BD7" stroke-dasharray="5 5"/>
</g>
<g style="mix-blend-mode:soft-light">
<path d="M860.5 0L860.5 400" stroke="#106BD7" stroke-dasharray="5 5"/>
</g>
</svg>
