<svg width="768" height="220" viewBox="0 0 768 220" fill="none" xmlns="http://www.w3.org/2000/svg">
<g style="mix-blend-mode:overlay">
<path fill-rule="evenodd" clip-rule="evenodd" d="M120.685 54.3872L120.685 -120.45H120.137L120.137 54.3872H-0.548828V54.9372H120.137L120.137 202.887H-0.548828V203.437H120.137L120.137 526.9H120.685L120.685 203.437H498.651V526.9H499.199V203.437H646.766V526.9H647.314V203.437H768V202.887H647.314V54.9372H768V54.3872H647.314V-120.45H646.766V54.3872H499.199V-120.45H498.651V54.3872H120.685ZM646.766 54.9372H499.199V202.887H646.766V54.9372ZM498.651 54.9372V202.887H120.685L120.685 54.9372H498.651Z" fill="#106BD7"/>
</g>
<g style="mix-blend-mode:soft-light">
<path d="M239.177 0V220" stroke="#106BD7" stroke-dasharray="5 5"/>
</g>
<g style="mix-blend-mode:soft-light">
<path d="M289.097 0V220" stroke="#106BD7" stroke-dasharray="5 5"/>
</g>
<g style="mix-blend-mode:soft-light">
<path d="M295.132 0V220" stroke="#106BD7" stroke-dasharray="5 5"/>
</g>
<g style="mix-blend-mode:soft-light">
<path d="M366.994 0V220" stroke="#106BD7" stroke-dasharray="5 5"/>
</g>
<g style="mix-blend-mode:soft-light">
<path d="M375.223 0V220" stroke="#106BD7" stroke-dasharray="5 5"/>
</g>
<g style="mix-blend-mode:soft-light">
<path d="M446.537 0L446.537 220" stroke="#106BD7" stroke-dasharray="5 5"/>
</g>
<g style="mix-blend-mode:soft-light">
<path d="M454.766 0L454.766 220" stroke="#106BD7" stroke-dasharray="5 5"/>
</g>
<g style="mix-blend-mode:soft-light">
<path d="M527.177 0L527.177 220" stroke="#106BD7" stroke-dasharray="5 5"/>
</g>
</svg>
