<svg width="1024" height="400" viewBox="0 0 1024 400" fill="none" xmlns="http://www.w3.org/2000/svg">
<g style="mix-blend-mode:overlay">
<path fill-rule="evenodd" clip-rule="evenodd" d="M32 98.8286L32 -219.057H31L31 98.8286H-189V99.8286H31V368.829H-189V369.829H31L31 957.943H32L32 369.829H721V957.943H722V369.829H991V957.943H992V369.829H1212V368.829H992V99.8286H1212V98.8286H992V-219.057H991V98.8286H722V-219.057H721V98.8286H32ZM991 99.8286H722V368.829H991V99.8286ZM721 99.8286V368.829H32V99.8286H721Z" fill="#106BD7"/>
</g>
<g style="mix-blend-mode:soft-light">
<path d="M248 -0.0571289V399.943" stroke="#106BD7" stroke-dasharray="5 5"/>
</g>
<g style="mix-blend-mode:soft-light">
<path d="M339 -0.0571289V399.943" stroke="#106BD7" stroke-dasharray="5 5"/>
</g>
<g style="mix-blend-mode:soft-light">
<path d="M350 -0.0571289V399.943" stroke="#106BD7" stroke-dasharray="5 5"/>
</g>
<g style="mix-blend-mode:soft-light">
<path d="M481 -0.0571289V399.943" stroke="#106BD7" stroke-dasharray="5 5"/>
</g>
<g style="mix-blend-mode:soft-light">
<path d="M496 -0.0571289V399.943" stroke="#106BD7" stroke-dasharray="5 5"/>
</g>
<g style="mix-blend-mode:soft-light">
<path d="M626 -0.0571289L626 399.943" stroke="#106BD7" stroke-dasharray="5 5"/>
</g>
<g style="mix-blend-mode:soft-light">
<path d="M641 -0.0571289L641 399.943" stroke="#106BD7" stroke-dasharray="5 5"/>
</g>
<g style="mix-blend-mode:soft-light">
<path d="M773 -0.0571289L773 399.943" stroke="#106BD7" stroke-dasharray="5 5"/>
</g>
</svg>
