<svg width="375" height="327" viewBox="0 0 375 327" fill="none" xmlns="http://www.w3.org/2000/svg">
<path d="M127.15 120.74C123.38 116.39 119.86 111.52 116.61 106.51L67.4099 216.9H118.8L138 170.46H138.06L151.7 137.8C142.4 133.88 133.83 128.46 127.15 120.74Z" fill="white"/>
<path d="M156.66 125.93L170.49 92.8099L188.47 49.4099L206.45 92.8099L220.39 126.46C236.61 116.36 247.65 98.6899 248.54 78.4299L213.55 0.179932H164.01L129.32 77.9999C130.06 98.0999 140.78 115.67 156.66 125.93Z" fill="white"/>
<path d="M262.91 110.57C253.38 122.29 241.68 132.65 228.5 139.77C227.79 140.15 227.07 140.51 226.35 140.86L238.61 170.45H238.63L245.95 188.16L245.97 188.2L257.83 216.89H310.46L262.91 110.57Z" fill="white"/>
<path d="M258.24 75.47C258.24 75.57 258.25 75.67 258.25 75.78C258.25 114.06 227.22 145.09 188.93 145.09C150.65 145.09 119.62 114.06 119.62 75.78C119.62 75.68 119.62 75.58 119.62 75.47H68.29V91.03L92.13 96.87C94.67 108.58 99.29 119.51 105.57 129.28L92.83 150.28L114.41 171.86L135.41 159.12C145.18 165.4 156.1 170.02 167.82 172.56L173.66 196.4H204.18L210.02 172.56C221.73 170.02 232.66 165.4 242.43 159.12L263.43 171.86L285.01 150.28L272.27 129.28C278.55 119.51 283.17 108.58 285.71 96.87L309.55 91.03V75.47H258.24Z" fill="url(#paint0_linear_9_2878)"/>
<path d="M42.5299 314.36H17.95L13.2599 325.71H0.699951L24.2999 272.76H36.3999L60.0699 325.71H47.2099L42.5299 314.36ZM38.6799 305.06L30.2799 284.79L21.8799 305.06H38.6799Z" fill="white"/>
<path d="M78.23 272.76H90.48V315.72H117.03V325.7H78.23V272.76Z" fill="white"/>
<path d="M171.86 314.36H147.28L142.59 325.71H130.03L153.63 272.76H165.73L189.4 325.71H176.54L171.86 314.36ZM168 305.06L159.6 284.79L151.2 305.06H168Z" fill="white"/>
<path d="M215.88 282.74H198.94V272.76H245.08V282.74H228.14V325.7H215.89V282.74H215.88Z" fill="white"/>
<path d="M305.27 315.87V325.7H264.27V272.75H304.28V282.58H276.45V294.08H301.03V303.61H276.45V315.86H305.27V315.87Z" fill="white"/>
<path d="M324.18 299.23C324.18 283.27 336.43 271.85 352.92 271.85C362.07 271.85 369.71 275.18 374.7 281.23L366.83 288.49C363.28 284.41 358.81 282.29 353.52 282.29C343.61 282.29 336.58 289.25 336.58 299.23C336.58 309.21 343.61 316.17 353.52 316.17C358.81 316.17 363.28 314.05 366.83 309.89L374.7 317.15C369.71 323.28 362.07 326.6 352.84 326.6C336.43 326.61 324.18 315.19 324.18 299.23Z" fill="white"/>
<defs>
<linearGradient id="paint0_linear_9_2878" x1="68.2977" y1="135.944" x2="309.563" y2="135.944" gradientUnits="userSpaceOnUse">
<stop stop-color="#DADADA"/>
<stop offset="1" stop-color="#878787"/>
</linearGradient>
</defs>
</svg>
