<svg width="28" height="29" viewBox="0 0 28 29" fill="none" xmlns="http://www.w3.org/2000/svg">
<path d="M9.28662 21.6293L9.61357 21.7909C10.9761 22.5989 12.5019 22.9759 14.0279 22.9759C18.8236 22.9759 22.7473 19.0976 22.7473 14.3575C22.7473 12.0952 21.8208 9.88666 20.186 8.27067C18.5511 6.65469 16.3711 5.73901 14.0279 5.73901C9.23216 5.73901 5.30834 9.61731 5.36287 14.4114C5.36287 16.0273 5.85334 17.5894 6.67076 18.936L6.88873 19.2592L6.01685 22.4373L9.28662 21.6293Z" fill="#00E676"/>
<g filter="url(#filter0_d_18_272)">
<path d="M21.112 7.40873C19.2591 5.52347 16.6977 4.5 14.0819 4.5C8.52328 4.5 4.05453 8.97081 4.10898 14.4112C4.10898 16.1349 4.59945 17.8048 5.41695 19.313L4 24.4302L9.28617 23.0836C10.7576 23.8916 12.3924 24.2686 14.0274 24.2686C19.5316 24.2686 24.0003 19.7978 24.0003 14.3575C24.0003 11.718 22.9648 9.24015 21.112 7.40873H21.112ZM14.0819 22.5988C12.6105 22.5988 11.1391 22.2219 9.88562 21.4677L9.55867 21.3061L6.39789 22.1141L7.21531 19.0438L6.99734 18.7205C4.59945 14.8961 5.74391 9.83266 9.66766 7.46255C13.5914 5.09251 18.6596 6.22371 21.0575 10.102C23.4553 13.9803 22.3109 18.9898 18.3872 21.3599C17.1337 22.1679 15.6078 22.5988 14.0819 22.5988V22.5988ZM18.8776 16.6198L18.2781 16.3505C18.2781 16.3505 17.4062 15.9734 16.8612 15.7041C16.8067 15.7041 16.7523 15.6502 16.6977 15.6502C16.5342 15.6502 16.4252 15.7041 16.3162 15.758C16.3162 15.758 16.2618 15.8118 15.4988 16.6737C15.4443 16.7814 15.3353 16.8353 15.2263 16.8353H15.1718C15.1173 16.8353 15.0084 16.7814 14.9538 16.7276L14.6813 16.6198C14.0819 16.3505 13.537 16.0273 13.1009 15.5964C12.992 15.4886 12.8284 15.3809 12.7195 15.2732C12.338 14.8961 11.9565 14.4652 11.6841 13.9804L11.6295 13.8727C11.5751 13.8188 11.5751 13.7649 11.5205 13.6572C11.5205 13.5495 11.5205 13.4418 11.5751 13.3879C11.5751 13.3879 11.793 13.1185 11.9565 12.957C12.0655 12.8492 12.12 12.6876 12.229 12.5799C12.338 12.4183 12.3925 12.2029 12.338 12.0412C12.2835 11.7719 11.6295 10.3175 11.4661 9.99436C11.357 9.83274 11.2481 9.77892 11.0846 9.72502H10.4852C10.3761 9.72502 10.2672 9.77892 10.1581 9.77892L10.1036 9.83274C9.99461 9.88664 9.88563 9.99436 9.77664 10.0482C9.66766 10.156 9.61313 10.2636 9.50414 10.3714C9.12266 10.8562 8.90469 11.4487 8.90469 12.0412C8.90469 12.4721 9.01367 12.9031 9.17719 13.2802L9.23172 13.4418C9.72219 14.4652 10.3761 15.3809 11.2481 16.1889L11.4661 16.4043C11.6295 16.5659 11.793 16.6737 11.902 16.8352C13.0465 17.8049 14.3544 18.5051 15.8258 18.8822C15.9893 18.936 16.2073 18.936 16.3708 18.9899H16.9157C17.1882 18.9899 17.5152 18.8822 17.7332 18.7744C17.8966 18.6667 18.0056 18.6667 18.1146 18.559L18.2237 18.4512C18.3327 18.3435 18.4416 18.2897 18.5506 18.1819C18.6596 18.0742 18.7686 17.9665 18.8231 17.8587C18.9321 17.6432 18.9866 17.3739 19.0411 17.1046V16.7276C19.0411 16.7276 18.9866 16.6737 18.8776 16.6198V16.6198Z" fill="white"/>
</g>
<defs>
<filter id="filter0_d_18_272" x="0" y="0.5" width="28" height="27.9302" filterUnits="userSpaceOnUse" color-interpolation-filters="sRGB">
<feFlood flood-opacity="0" result="BackgroundImageFix"/>
<feColorMatrix in="SourceAlpha" type="matrix" values="0 0 0 0 0 0 0 0 0 0 0 0 0 0 0 0 0 0 127 0" result="hardAlpha"/>
<feOffset/>
<feGaussianBlur stdDeviation="2"/>
<feComposite in2="hardAlpha" operator="out"/>
<feColorMatrix type="matrix" values="0 0 0 0 0 0 0 0 0 0 0 0 0 0 0 0 0 0 0.15 0"/>
<feBlend mode="normal" in2="BackgroundImageFix" result="effect1_dropShadow_18_272"/>
<feBlend mode="normal" in="SourceGraphic" in2="effect1_dropShadow_18_272" result="shape"/>
</filter>
</defs>
</svg>
