<?xml version="1.0" encoding="utf-8"?><svg viewBox="0 0 1920 400" xmlns="http://www.w3.org/2000/svg" xmlns:xlink="http://www.w3.org/1999/xlink"><style>:root>svg{display:none}:root>svg:target{display:block}</style><svg viewBox="0 0 1024 400" id="hero-line-1024" xmlns="http://www.w3.org/2000/svg"><path fill-rule="evenodd" clip-rule="evenodd" d="M32 98.829v-317.886h-1V98.829h-220v1H31v269h-220v1H31v588.114h1V369.829h689v588.114h1V369.829h269v588.114h1V369.829h220v-1H992v-269h220v-1H992v-317.886h-1V98.829H722v-317.886h-1V98.829H32zm959 1H722v269h269v-269zm-270 0v269H32v-269h689z"/><path d="M248-.057v400m91-400v400m11-400v400m131-400v400m15-400v400m130-400v400m15-400v400m132-400v400"/></svg><svg viewBox="0 0 1200 400" id="hero-line-1200" xmlns="http://www.w3.org/2000/svg"><path fill-rule="evenodd" clip-rule="evenodd" d="M119.5 98.886V-219h-1V98.886h-220v1h220v269h-220v1h220V958h1V369.886h689V958h1V369.886h269V958h1V369.886h220v-1h-220v-269h220v-1h-220V-219h-1V98.886h-269V-219h-1V98.886h-689zm959 1h-269v269h269v-269zm-270 0v269h-689v-269h689z"/><path d="M335.5 0v400m91-400v400m11-400v400m131-400v400m15-400v400m130-400v400m15-400v400m132-400v400"/></svg><svg viewBox="0 0 1400 400" id="hero-line-1400" xmlns="http://www.w3.org/2000/svg"><path fill-rule="evenodd" clip-rule="evenodd" d="M225 99v-318h-1V99h-492v1h492v269h-492v1h492v588h1V370h689v588h1V370h269v588h1V370h492v-1h-492V100h492v-1h-492v-318h-1V99H915v-318h-1V99H225zm959 1H915v269h269V100zm-270 0v269H225V100h689z"/><path d="M441 0v400M532 0v400M543 0v400M674 0v400M689 0v400M819 0v400M834 0v400M966 0v400"/></svg><svg viewBox="0 0 1920 400" id="hero-line-1920" xmlns="http://www.w3.org/2000/svg"><path fill-rule="evenodd" clip-rule="evenodd" d="M485 99v-318h-1V99H-8v1h492v269H-8v1h492v588h1V370h689v588h1V370h269v588h1V370h492v-1h-492V100h492v-1h-492v-318h-1V99h-269v-318h-1V99H485zm959 1h-269v269h269V100zm-270 0v269H485V100h689z"/><path d="M701 0v400M792 0v400M803 0v400M934 0v400M949 0v400M1079 0v400m15-400v400M1226 0v400"/></svg><svg viewBox="0 0 320 251" id="hero-line-320" xmlns="http://www.w3.org/2000/svg"><path fill-rule="evenodd" clip-rule="evenodd" d="M-176 98.829v-317.886h-1V98.829h-220v1h220v269h-220v1h220v588.114h1V369.829h689v588.114h1V369.829h269v588.114h1V369.829h220v-1H784v-269h220v-1H784v-317.886h-1V98.829H514v-317.886h-1V98.829h-689zm959 1H514v269h269v-269zm-270 0v269h-689v-269h689z"/><path d="M40-.057v400m91-400v400m11-400v400m131-400v400m15-400v400"/></svg><svg viewBox="0 0 480 251" id="hero-line-480" xmlns="http://www.w3.org/2000/svg"><path fill-rule="evenodd" clip-rule="evenodd" d="M-96 98.829v-317.886h-1V98.829h-220v1h220v269h-220v1h220v588.114h1V369.829h689v588.114h1V369.829h269v588.114h1V369.829h220v-1H864v-269h220v-1H864v-317.886h-1V98.829H594v-317.886h-1V98.829H-96zm959 1H594v269h269v-269zm-270 0v269H-96v-269h689z"/><path d="M120-.057v400m91-400v400m11-400v400m131-400v400m15-400v400"/></svg><svg viewBox="0 0 768 220" id="hero-line-768" xmlns="http://www.w3.org/2000/svg"><path fill-rule="evenodd" clip-rule="evenodd" d="M120.685 54.387V-120.45h-.548V54.387H-.549v.55h120.686v147.95H-.549v.55h120.686V526.9h.548V203.437h377.966V526.9h.548V203.437h147.567V526.9h.548V203.437H768v-.55H647.314V54.937H768v-.55H647.314V-120.45h-.548V54.387H499.199V-120.45h-.548V54.387H120.685zm526.081.55H499.199v147.95h147.567V54.937zm-148.115 0v147.95H120.685V54.937h377.966z"/><path d="M239.177 0v220m49.92-220v220m6.035-220v220M366.994 0v220m8.229-220v220M446.537 0v220m8.229-220v220M527.177 0v220"/></svg><svg viewBox="0 0 375 327" id="logo-black" xmlns="http://www.w3.org/2000/svg"><path d="M127.15 120.74c-3.77-4.35-7.29-9.22-10.54-14.23L67.41 216.9h51.39l19.2-46.44h.06l13.64-32.66c-9.3-3.92-17.87-9.34-24.55-17.06zm29.51 5.19l13.83-33.12 17.98-43.4 17.98 43.4 13.94 33.65c16.22-10.1 27.26-27.77 28.15-48.03L213.55.18h-49.54L129.32 78c.74 20.1 11.46 37.67 27.34 47.93zm106.25-15.36c-9.53 11.72-21.23 22.08-34.41 29.2-.71.38-1.43.74-2.15 1.09l12.26 29.59h.02l7.32 17.71.02.04 11.86 28.69h52.63l-47.55-106.32z"/><path d="M258.24 75.47c0 .1.01.2.01.31 0 38.28-31.03 69.31-69.32 69.31-38.28 0-69.31-31.03-69.31-69.31v-.31H68.29v15.56l23.84 5.84c2.54 11.71 7.16 22.64 13.44 32.41l-12.74 21 21.58 21.58 21-12.74c9.77 6.28 20.69 10.9 32.41 13.44l5.84 23.84h30.52l5.84-23.84c11.71-2.54 22.64-7.16 32.41-13.44l21 12.74 21.58-21.58-12.74-21c6.28-9.77 10.9-20.7 13.44-32.41l23.84-5.84V75.47h-51.31zM42.53 314.36H17.95l-4.69 11.35H.7l23.6-52.95h12.1l23.67 52.95H47.21l-4.68-11.35zm-3.85-9.3l-8.4-20.27-8.4 20.27h16.8zm39.55-32.3h12.25v42.96h26.55v9.98h-38.8v-52.94zm93.63 41.6h-24.58l-4.69 11.35h-12.56l23.6-52.95h12.1l23.67 52.95h-12.86l-4.68-11.35zm-3.86-9.3l-8.4-20.27-8.4 20.27H168zm47.88-22.32h-16.94v-9.98h46.14v9.98h-16.94v42.96h-12.25v-42.96h-.01zm89.39 33.13v9.83h-41v-52.95h40.01v9.83h-27.83v11.5h24.58v9.53h-24.58v12.25h28.82v.01zm18.91-16.64c0-15.96 12.25-27.38 28.74-27.38 9.15 0 16.79 3.33 21.78 9.38l-7.87 7.26c-3.55-4.08-8.02-6.2-13.31-6.2-9.91 0-16.94 6.96-16.94 16.94s7.03 16.94 16.94 16.94c5.29 0 9.76-2.12 13.31-6.28l7.87 7.26c-4.99 6.13-12.63 9.45-21.86 9.45-16.41.01-28.66-11.41-28.66-27.37z"/></svg><svg viewBox="0 0 375 327" id="logo-grey" xmlns="http://www.w3.org/2000/svg"><path d="M127.15 120.74c-3.77-4.35-7.29-9.22-10.54-14.23L67.41 216.9h51.39l19.2-46.44h.06l13.64-32.66c-9.3-3.92-17.87-9.34-24.55-17.06zm29.51 5.19l13.83-33.12 17.98-43.4 17.98 43.4 13.94 33.65c16.22-10.1 27.26-27.77 28.15-48.03L213.55.18h-49.54L129.32 78c.74 20.1 11.46 37.67 27.34 47.93zm106.25-15.36c-9.53 11.72-21.23 22.08-34.41 29.2-.71.38-1.43.74-2.15 1.09l12.26 29.59h.02l7.32 17.71.02.04 11.86 28.69h52.63l-47.55-106.32z"/><path d="M258.24 75.47c0 .1.01.2.01.31 0 38.28-31.03 69.31-69.32 69.31-38.28 0-69.31-31.03-69.31-69.31v-.31H68.29v15.56l23.84 5.84c2.54 11.71 7.16 22.64 13.44 32.41l-12.74 21 21.58 21.58 21-12.74c9.77 6.28 20.69 10.9 32.41 13.44l5.84 23.84h30.52l5.84-23.84c11.71-2.54 22.64-7.16 32.41-13.44l21 12.74 21.58-21.58-12.74-21c6.28-9.77 10.9-20.7 13.44-32.41l23.84-5.84V75.47h-51.31zM42.53 314.36H17.95l-4.69 11.35H.7l23.6-52.95h12.1l23.67 52.95H47.21l-4.68-11.35zm-3.85-9.3l-8.4-20.27-8.4 20.27h16.8zm39.55-32.3h12.25v42.96h26.55v9.98h-38.8v-52.94zm93.63 41.6h-24.58l-4.69 11.35h-12.56l23.6-52.95h12.1l23.67 52.95h-12.86l-4.68-11.35zm-3.86-9.3l-8.4-20.27-8.4 20.27H168zm47.88-22.32h-16.94v-9.98h46.14v9.98h-16.94v42.96h-12.25v-42.96h-.01zm89.39 33.13v9.83h-41v-52.95h40.01v9.83h-27.83v11.5h24.58v9.53h-24.58v12.25h28.82v.01zm18.91-16.64c0-15.96 12.25-27.38 28.74-27.38 9.15 0 16.79 3.33 21.78 9.38l-7.87 7.26c-3.55-4.08-8.02-6.2-13.31-6.2-9.91 0-16.94 6.96-16.94 16.94s7.03 16.94 16.94 16.94c5.29 0 9.76-2.12 13.31-6.28l7.87 7.26c-4.99 6.13-12.63 9.45-21.86 9.45-16.41.01-28.66-11.41-28.66-27.37z"/><defs><linearGradient id="ia" x1="68.298" y1="135.944" x2="309.563" y2="135.944" gradientUnits="userSpaceOnUse"><stop stop-color="#DADADA"/><stop offset="1" stop-color="#878787"/></linearGradient></defs></svg><svg viewBox="0 0 375 327" id="logo-white" xmlns="http://www.w3.org/2000/svg"><path d="M127.15 120.74c-3.77-4.35-7.29-9.22-10.54-14.23L67.41 216.9h51.39l19.2-46.44h.06l13.64-32.66c-9.3-3.92-17.87-9.34-24.55-17.06zm29.51 5.19l13.83-33.12 17.98-43.4 17.98 43.4 13.94 33.65c16.22-10.1 27.26-27.77 28.15-48.03L213.55.18h-49.54L129.32 78c.74 20.1 11.46 37.67 27.34 47.93zm106.25-15.36c-9.53 11.72-21.23 22.08-34.41 29.2-.71.38-1.43.74-2.15 1.09l12.26 29.59h.02l7.32 17.71.02.04 11.86 28.69h52.63l-47.55-106.32z"/><path d="M258.24 75.47c0 .1.01.2.01.31 0 38.28-31.03 69.31-69.32 69.31-38.28 0-69.31-31.03-69.31-69.31v-.31H68.29v15.56l23.84 5.84c2.54 11.71 7.16 22.64 13.44 32.41l-12.74 21 21.58 21.58 21-12.74c9.77 6.28 20.69 10.9 32.41 13.44l5.84 23.84h30.52l5.84-23.84c11.71-2.54 22.64-7.16 32.41-13.44l21 12.74 21.58-21.58-12.74-21c6.28-9.77 10.9-20.7 13.44-32.41l23.84-5.84V75.47h-51.31zM42.53 314.36H17.95l-4.69 11.35H.7l23.6-52.95h12.1l23.67 52.95H47.21l-4.68-11.35zm-3.85-9.3l-8.4-20.27-8.4 20.27h16.8zm39.55-32.3h12.25v42.96h26.55v9.98h-38.8v-52.94zm93.63 41.6h-24.58l-4.69 11.35h-12.56l23.6-52.95h12.1l23.67 52.95h-12.86l-4.68-11.35zm-3.86-9.3l-8.4-20.27-8.4 20.27H168zm47.88-22.32h-16.94v-9.98h46.14v9.98h-16.94v42.96h-12.25v-42.96h-.01zm89.39 33.13v9.83h-41v-52.95h40.01v9.83h-27.83v11.5h24.58v9.53h-24.58v12.25h28.82v.01zm18.91-16.64c0-15.96 12.25-27.38 28.74-27.38 9.15 0 16.79 3.33 21.78 9.38l-7.87 7.26c-3.55-4.08-8.02-6.2-13.31-6.2-9.91 0-16.94 6.96-16.94 16.94s7.03 16.94 16.94 16.94c5.29 0 9.76-2.12 13.31-6.28l7.87 7.26c-4.99 6.13-12.63 9.45-21.86 9.45-16.41.01-28.66-11.41-28.66-27.37z"/></svg><svg viewBox="0 0 28 29" id="whatsapp" xmlns="http://www.w3.org/2000/svg"><path d="M9.287 21.63l.327.16c1.362.809 2.888 1.186 4.414 1.186 4.796 0 8.72-3.878 8.72-8.618a8.6 8.6 0 00-2.562-6.087 8.708 8.708 0 00-6.158-2.532c-4.796 0-8.72 3.878-8.665 8.672 0 1.616.49 3.178 1.308 4.525l.218.323-.872 3.178 3.27-.808z"/><g filter="url(#ka)"><path d="M21.112 7.409C19.259 5.523 16.698 4.5 14.082 4.5c-5.559 0-10.027 4.47-9.973 9.911 0 1.724.49 3.394 1.308 4.902L4 24.43l5.286-1.346c1.472.808 3.106 1.185 4.741 1.185 5.505 0 9.973-4.471 9.973-9.911a9.719 9.719 0 00-2.888-6.95zm-7.03 15.19c-1.472 0-2.943-.377-4.196-1.131l-.327-.162-3.161.808.817-3.07-.218-.323C4.6 14.896 5.744 9.833 9.667 7.463c3.924-2.37 8.993-1.24 11.39 2.639 2.398 3.878 1.254 8.888-2.67 11.258-1.253.808-2.78 1.239-4.305 1.239zm4.796-5.98l-.6-.268s-.872-.378-1.417-.647c-.054 0-.109-.054-.163-.054a.793.793 0 00-.382.108s-.054.054-.817.916a.3.3 0 01-.273.161h-.054a.416.416 0 01-.218-.107l-.273-.108c-.6-.27-1.144-.593-1.58-1.024-.109-.107-.273-.215-.382-.323-.381-.377-.762-.808-1.035-1.293l-.054-.107c-.055-.054-.055-.108-.11-.216 0-.107 0-.215.055-.27 0 0 .218-.269.382-.43.108-.108.163-.27.272-.377.109-.162.164-.377.109-.539-.054-.27-.708-1.723-.872-2.047-.109-.161-.218-.215-.381-.269h-.6c-.109 0-.218.054-.327.054l-.054.054c-.11.054-.218.161-.327.215-.11.108-.164.216-.273.323a2.727 2.727 0 00-.6 1.67c0 .431.11.862.273 1.24l.055.16a8.978 8.978 0 002.016 2.748l.218.215c.164.162.327.27.436.431a9.776 9.776 0 003.924 2.047c.163.054.381.054.545.108h.545c.272 0 .6-.108.817-.216.164-.107.273-.107.382-.215l.109-.108c.109-.108.218-.161.327-.27.109-.107.218-.215.272-.322.11-.216.164-.485.218-.754v-.377s-.054-.054-.163-.108z"/></g><defs><filter id="ka" x="0" y=".5" width="28" height="27.93" filterUnits="userSpaceOnUse" color-interpolation-filters="sRGB"><feFlood flood-opacity="0" result="BackgroundImageFix"/><feColorMatrix in="SourceAlpha" values="0 0 0 0 0 0 0 0 0 0 0 0 0 0 0 0 0 0 127 0" result="hardAlpha"/><feOffset/><feGaussianBlur stdDeviation="2"/><feComposite in2="hardAlpha" operator="out"/><feColorMatrix values="0 0 0 0 0 0 0 0 0 0 0 0 0 0 0 0 0 0 0.15 0"/><feBlend in2="BackgroundImageFix" result="effect1_dropShadow_18_272"/><feBlend in="SourceGraphic" in2="effect1_dropShadow_18_272" result="shape"/></filter></defs></svg></svg>